<svg xmlns="http://www.w3.org/2000/svg" width="32" height="32" fill="none"><path fill="#FADA98" stroke="#004079" d="M.5 5.818A5.318 5.318 0 0 1 5.818.5h20.364A5.318 5.318 0 0 1 31.5 5.818v20.364a5.318 5.318 0 0 1-5.318 5.318H5.818A5.318 5.318 0 0 1 .5 26.182V5.818Z"/><ellipse cx="10.537" cy="14.439" fill="#CAE0FF" rx="4.293" ry="2.732"/><ellipse cx="22.244" cy="14.439" fill="#CAE0FF" rx="4.293" ry="2.732"/><path fill="#004079" fill-rule="evenodd" d="M8.705 11.137a3.242 3.242 0 1 0 0 6.484h3.242a3.23 3.23 0 0 0 2.107-.778v4.02c0 1.208.98 2.188 2.189 2.188h.121a2.067 2.067 0 0 0 2.067-2.067v-.121a.567.567 0 0 0-.567-.568h-.027a.54.54 0 0 0-.54.54v.028a1.054 1.054 0 0 1-2.108 0v-6.565h-.001a3.242 3.242 0 0 0-3.241-3.161H8.705Zm5.35 3.242a2.107 2.107 0 0 0-2.108-2.108h-.78a2.432 2.432 0 1 1-4.48 1.498 2.107 2.107 0 0 0 2.018 2.716h3.242a2.107 2.107 0 0 0 2.107-2.106ZM9.11 12.27a1.297 1.297 0 1 0 0 2.594 1.297 1.297 0 0 0 0-2.594ZM20.052 11.137a3.242 3.242 0 0 0 0 6.484h3.242a3.242 3.242 0 1 0 0-6.484h-3.242ZM20.457 16a2.432 2.432 0 0 1-2.423-2.23 2.107 2.107 0 0 0 2.018 2.716h3.242a2.107 2.107 0 1 0 0-4.215h-.78A2.432 2.432 0 0 1 20.458 16Zm-1.297-2.432a1.297 1.297 0 1 1 2.594 0 1.297 1.297 0 0 1-2.594 0Z" clip-rule="evenodd"/></svg>